<svg xmlns="http://www.w3.org/2000/svg" width="38.703" height="43.74" viewBox="0 0 38.703 43.74">
  <path id="files-o" d="M843.307,804.891h-5.981V798.91a2.914,2.914,0,0,0-2.911-2.91H820.173a2.89,2.89,0,0,0-2.057.852l-9.748,9.748a2.891,2.891,0,0,0-.852,2.058v19.28a2.914,2.914,0,0,0,2.91,2.91h5.981v5.98a2.914,2.914,0,0,0,2.911,2.911h23.991a2.914,2.914,0,0,0,2.911-2.911V807.8A2.914,2.914,0,0,0,843.307,804.891Zm-32.882,23.36a.313.313,0,0,1-.312-.312V809.216a.651.651,0,0,1,.651-.651H817.9a2.247,2.247,0,0,0,2.247-2.247v-7.069a.651.651,0,0,1,.651-.651h13.617a.313.313,0,0,1,.313.312v5.981h-5.664a2.891,2.891,0,0,0-2.058.852l-9.749,9.749a2.892,2.892,0,0,0-.851,2.057v10.7h-5.981Zm33.195,8.578a.313.313,0,0,1-.312.312H819.317a.313.313,0,0,1-.313-.312V818.106a.651.651,0,0,1,.651-.651h7.138a2.247,2.247,0,0,0,2.247-2.247V808.14a.651.651,0,0,1,.651-.651h13.617a.313.313,0,0,1,.312.313v29.028Z" transform="translate(-807.515 -796)" fill="#fff"/>
</svg>
