<svg xmlns="http://www.w3.org/2000/svg" width="1920" height="236.749" viewBox="0 0 1920 236.749" preserveAspectRatio="none">
  <path id="Исключение_1" data-name="Исключение 1" d="M1920,950H0l.036-.025c2.456-1.58,25.071-16.041,62.283-36.967,22.914-12.885,46.766-25.642,70.892-37.917,30.158-15.343,60.826-29.966,91.152-43.465,77.2-34.364,152.7-61.745,224.4-81.382,20.725-5.676,41.4-10.771,61.463-15.144,21.113-4.6,42.121-8.53,62.441-11.675,21.309-3.3,42.45-5.826,62.835-7.514,21.31-1.764,42.387-2.659,62.644-2.659,15.217.219,30.629,1.049,45.806,2.469,14.46,1.352,29.185,3.285,43.767,5.743,13.78,2.323,27.913,5.2,42,8.545,13.164,3.126,26.8,6.784,40.521,10.873,23.846,7.1,49.264,15.883,77.708,26.838,25.338,9.758,50.631,20.283,75.091,30.461l.029.012c24.465,10.18,49.763,20.708,74.95,30.4,13.552,5.213,26,9.776,38.041,13.95,13.522,4.686,26.212,8.769,38.794,12.483a647.551,647.551,0,0,0,80.967,18.656c14.253,2.3,28.63,4.052,42.734,5.22,14.794,1.225,29.8,1.846,44.61,1.846,15.094,0,30.474-.645,45.713-1.916,15.8-1.317,31.96-3.351,48.039-6.045,24.066-4.032,48.33-7.07,72.116-9.03,22.4-1.845,44.949-2.781,67.022-2.781,25.9,0,51.855,1.287,77.146,3.826,22.991,2.308,45.95,5.7,68.237,10.085a673.745,673.745,0,0,1,108.048,30.6c13.42,5.077,26.529,10.576,38.963,16.345,9.947,4.615,19.487,9.412,28.356,14.259A269.879,269.879,0,0,1,1920,950Z" transform="translate(0 -713.252)" fill="#22223b"/>
</svg>
